{
    "asset" : {
        "generator" : "Khronos glTF Blender I/O v1.6.16",
        "version" : "2.0"
    },
    "scene" : 0,
    "scenes" : [
        {
            "name" : "Scene",
            "nodes" : [
                0
            ]
        }
    ],
    "nodes" : [
        {
            "mesh" : 0,
            "name" : "ArcheryTarget"
        }
    ],
    "materials" : [
        {
            "doubleSided" : true,
            "name" : "PaletteMaterial",
            "pbrMetallicRoughness" : {}
        }
    ],
    "meshes" : [
        {
            "name" : "Circle.003",
            "primitives" : [
                {
                    "attributes" : {
                        "POSITION" : 0,
                        "NORMAL" : 1,
                        "TEXCOORD_0" : 2
                    },
                    "indices" : 3,
                    "material" : 0
                }
            ]
        }
    ],
    "accessors" : [
        {
            "bufferView" : 0,
            "componentType" : 5126,
            "count" : 505,
            "max" : [
                0.3999999463558197,
                1,
                0.265815794467926
            ],
            "min" : [
                -0.3999999463558197,
                0,
                -0.48535752296447754
            ],
            "type" : "VEC3"
        },
        {
            "bufferView" : 1,
            "componentType" : 5126,
            "count" : 505,
            "type" : "VEC3"
        },
        {
            "bufferView" : 2,
            "componentType" : 5126,
            "count" : 505,
            "type" : "VEC2"
        },
        {
            "bufferView" : 3,
            "componentType" : 5123,
            "count" : 840,
            "type" : "SCALAR"
        }
    ],
    "bufferViews" : [
        {
            "buffer" : 0,
            "byteLength" : 6060,
            "byteOffset" : 0
        },
        {
            "buffer" : 0,
            "byteLength" : 6060,
            "byteOffset" : 6060
        },
        {
            "buffer" : 0,
            "byteLength" : 4040,
            "byteOffset" : 12120
        },
        {
            "buffer" : 0,
            "byteLength" : 1680,
            "byteOffset" : 16160
        }
    ],
    "buffers" : [
        {
            "byteLength" : 17840,
            "uri" : "data:application/octet-stream;base64,"
        }
    ]
}
