{
    "asset" : {
        "generator" : "Khronos glTF Blender I/O v1.6.16",
        "version" : "2.0"
    },
    "scene" : 0,
    "scenes" : [
        {
            "name" : "Scene",
            "nodes" : [
                0
            ]
        }
    ],
    "nodes" : [
        {
            "mesh" : 0,
            "name" : "Cliff.001"
        }
    ],
    "materials" : [
        {
            "doubleSided" : true,
            "name" : "PaletteMaterial",
            "pbrMetallicRoughness" : {}
        }
    ],
    "meshes" : [
        {
            "name" : "Plane.003",
            "primitives" : [
                {
                    "attributes" : {
                        "POSITION" : 0,
                        "NORMAL" : 1,
                        "TEXCOORD_0" : 2
                    },
                    "indices" : 3,
                    "material" : 0
                }
            ]
        }
    ],
    "accessors" : [
        {
            "bufferView" : 0,
            "componentType" : 5126,
            "count" : 2566,
            "max" : [
                89.2621078491211,
                -7.450580596923828e-09,
                47.76507568359375
            ],
            "min" : [
                -85.03214263916016,
                -44.64322280883789,
                -211.36378479003906
            ],
            "type" : "VEC3"
        },
        {
            "bufferView" : 1,
            "componentType" : 5126,
            "count" : 2566,
            "type" : "VEC3"
        },
        {
            "bufferView" : 2,
            "componentType" : 5126,
            "count" : 2566,
            "type" : "VEC2"
        },
        {
            "bufferView" : 3,
            "componentType" : 5123,
            "count" : 4074,
            "type" : "SCALAR"
        }
    ],
    "bufferViews" : [
        {
            "buffer" : 0,
            "byteLength" : 30792,
            "byteOffset" : 0
        },
        {
            "buffer" : 0,
            "byteLength" : 30792,
            "byteOffset" : 30792
        },
        {
            "buffer" : 0,
            "byteLength" : 20528,
            "byteOffset" : 61584
        },
        {
            "buffer" : 0,
            "byteLength" : 8148,
            "byteOffset" : 82112
        }
    ],
    "buffers" : [
        {
            "byteLength" : 90260,
            "uri" : "data:application/octet-stream;base64,"
        }
    ]
}
