{
    "asset" : {
        "generator" : "Khronos glTF Blender I/O v1.6.16",
        "version" : "2.0"
    },
    "scene" : 0,
    "scenes" : [
        {
            "name" : "Scene",
            "nodes" : [
                0
            ]
        }
    ],
    "nodes" : [
        {
            "mesh" : 0,
            "name" : "Gazebo"
        }
    ],
    "materials" : [
        {
            "doubleSided" : true,
            "name" : "PaletteMaterial",
            "pbrMetallicRoughness" : {}
        }
    ],
    "meshes" : [
        {
            "name" : "Circle",
            "primitives" : [
                {
                    "attributes" : {
                        "POSITION" : 0,
                        "NORMAL" : 1,
                        "TEXCOORD_0" : 2
                    },
                    "indices" : 3,
                    "material" : 0
                }
            ]
        }
    ],
    "accessors" : [
        {
            "bufferView" : 0,
            "componentType" : 5126,
            "count" : 1528,
            "max" : [
                3.666384696960449,
                8.607809066772461,
                4.26638126373291
            ],
            "min" : [
                -3.666384696960449,
                -2.9802322387695312e-08,
                -4.26638126373291
            ],
            "type" : "VEC3"
        },
        {
            "bufferView" : 1,
            "componentType" : 5126,
            "count" : 1528,
            "type" : "VEC3"
        },
        {
            "bufferView" : 2,
            "componentType" : 5126,
            "count" : 1528,
            "type" : "VEC2"
        },
        {
            "bufferView" : 3,
            "componentType" : 5123,
            "count" : 2280,
            "type" : "SCALAR"
        }
    ],
    "bufferViews" : [
        {
            "buffer" : 0,
            "byteLength" : 18336,
            "byteOffset" : 0
        },
        {
            "buffer" : 0,
            "byteLength" : 18336,
            "byteOffset" : 18336
        },
        {
            "buffer" : 0,
            "byteLength" : 12224,
            "byteOffset" : 36672
        },
        {
            "buffer" : 0,
            "byteLength" : 4560,
            "byteOffset" : 48896
        }
    ],
    "buffers" : [
        {
            "byteLength" : 53456,
            "uri" : "data:application/octet-stream;base64,"
        }
    ]
}
