{
    "asset" : {
        "generator" : "Khronos glTF Blender I/O v1.6.16",
        "version" : "2.0"
    },
    "scene" : 0,
    "scenes" : [
        {
            "name" : "Scene",
            "nodes" : [
                0
            ]
        }
    ],
    "nodes" : [
        {
            "mesh" : 0,
            "name" : "SakuraTree1"
        }
    ],
    "materials" : [
        {
            "doubleSided" : true,
            "name" : "PaletteMaterial",
            "pbrMetallicRoughness" : {}
        }
    ],
    "meshes" : [
        {
            "name" : "Icosphere.001",
            "primitives" : [
                {
                    "attributes" : {
                        "POSITION" : 0,
                        "NORMAL" : 1,
                        "TEXCOORD_0" : 2
                    },
                    "indices" : 3,
                    "material" : 0
                }
            ]
        }
    ],
    "accessors" : [
        {
            "bufferView" : 0,
            "componentType" : 5126,
            "count" : 3140,
            "max" : [
                1.5572218894958496,
                3.1373369693756104,
                0.7037211060523987
            ],
            "min" : [
                -1.9699113368988037,
                0,
                -1.1722064018249512
            ],
            "type" : "VEC3"
        },
        {
            "bufferView" : 1,
            "componentType" : 5126,
            "count" : 3140,
            "type" : "VEC3"
        },
        {
            "bufferView" : 2,
            "componentType" : 5126,
            "count" : 3140,
            "type" : "VEC2"
        },
        {
            "bufferView" : 3,
            "componentType" : 5123,
            "count" : 4350,
            "type" : "SCALAR"
        }
    ],
    "bufferViews" : [
        {
            "buffer" : 0,
            "byteLength" : 37680,
            "byteOffset" : 0
        },
        {
            "buffer" : 0,
            "byteLength" : 37680,
            "byteOffset" : 37680
        },
        {
            "buffer" : 0,
            "byteLength" : 25120,
            "byteOffset" : 75360
        },
        {
            "buffer" : 0,
            "byteLength" : 8700,
            "byteOffset" : 100480
        }
    ],
    "buffers" : [
        {
            "byteLength" : 109180,
            "uri" : "data:application/octet-stream;base64,"
        }
    ]
}
