{
    "asset" : {
        "generator" : "Khronos glTF Blender I/O v1.6.16",
        "version" : "2.0"
    },
    "scene" : 0,
    "scenes" : [
        {
            "name" : "Scene",
            "nodes" : [
                0
            ]
        }
    ],
    "nodes" : [
        {
            "mesh" : 0,
            "name" : "Cube"
        }
    ],
    "materials" : [
        {
            "doubleSided" : true,
            "name" : "PaletteMaterial",
            "pbrMetallicRoughness" : {}
        }
    ],
    "meshes" : [
        {
            "name" : "Cube.005",
            "primitives" : [
                {
                    "attributes" : {
                        "POSITION" : 0,
                        "NORMAL" : 1,
                        "TEXCOORD_0" : 2
                    },
                    "indices" : 3,
                    "material" : 0
                }
            ]
        }
    ],
    "accessors" : [
        {
            "bufferView" : 0,
            "componentType" : 5126,
            "count" : 1869,
            "max" : [
                5.734192848205566,
                4.163640022277832,
                2.5335958003997803
            ],
            "min" : [
                -5.734192848205566,
                0,
                -3.505514144897461
            ],
            "type" : "VEC3"
        },
        {
            "bufferView" : 1,
            "componentType" : 5126,
            "count" : 1869,
            "type" : "VEC3"
        },
        {
            "bufferView" : 2,
            "componentType" : 5126,
            "count" : 1869,
            "type" : "VEC2"
        },
        {
            "bufferView" : 3,
            "componentType" : 5123,
            "count" : 2964,
            "type" : "SCALAR"
        }
    ],
    "bufferViews" : [
        {
            "buffer" : 0,
            "byteLength" : 22428,
            "byteOffset" : 0
        },
        {
            "buffer" : 0,
            "byteLength" : 22428,
            "byteOffset" : 22428
        },
        {
            "buffer" : 0,
            "byteLength" : 14952,
            "byteOffset" : 44856
        },
        {
            "buffer" : 0,
            "byteLength" : 5928,
            "byteOffset" : 59808
        }
    ],
    "buffers" : [
        {
            "byteLength" : 65736,
            "uri" : "data:application/octet-stream;base64,"
        }
    ]
}
