{
    "asset" : {
        "generator" : "Khronos glTF Blender I/O v1.6.16",
        "version" : "2.0"
    },
    "scene" : 0,
    "scenes" : [
        {
            "name" : "Scene",
            "nodes" : [
                0
            ]
        }
    ],
    "nodes" : [
        {
            "mesh" : 0,
            "name" : "TempleWall-Lsw"
        }
    ],
    "materials" : [
        {
            "doubleSided" : true,
            "name" : "PaletteMaterial",
            "pbrMetallicRoughness" : {}
        }
    ],
    "meshes" : [
        {
            "name" : "Cube.036",
            "primitives" : [
                {
                    "attributes" : {
                        "POSITION" : 0,
                        "NORMAL" : 1,
                        "TEXCOORD_0" : 2
                    },
                    "indices" : 3,
                    "material" : 0
                }
            ]
        }
    ],
    "accessors" : [
        {
            "bufferView" : 0,
            "componentType" : 5126,
            "count" : 102,
            "max" : [
                0.29950007796287537,
                3.1999998092651367,
                1.0000009536743164
            ],
            "min" : [
                -1.0000009536743164,
                2.3841856489070778e-07,
                -0.29950010776519775
            ],
            "type" : "VEC3"
        },
        {
            "bufferView" : 1,
            "componentType" : 5126,
            "count" : 102,
            "type" : "VEC3"
        },
        {
            "bufferView" : 2,
            "componentType" : 5126,
            "count" : 102,
            "type" : "VEC2"
        },
        {
            "bufferView" : 3,
            "componentType" : 5123,
            "count" : 168,
            "type" : "SCALAR"
        }
    ],
    "bufferViews" : [
        {
            "buffer" : 0,
            "byteLength" : 1224,
            "byteOffset" : 0
        },
        {
            "buffer" : 0,
            "byteLength" : 1224,
            "byteOffset" : 1224
        },
        {
            "buffer" : 0,
            "byteLength" : 816,
            "byteOffset" : 2448
        },
        {
            "buffer" : 0,
            "byteLength" : 336,
            "byteOffset" : 3264
        }
    ],
    "buffers" : [
        {
            "byteLength" : 3600,
            "uri" : "data:application/octet-stream;base64,"
        }
    ]
}
