{
    "asset" : {
        "generator" : "Khronos glTF Blender I/O v1.6.16",
        "version" : "2.0"
    },
    "scene" : 0,
    "scenes" : [
        {
            "name" : "Scene",
            "nodes" : [
                0
            ]
        }
    ],
    "nodes" : [
        {
            "mesh" : 0,
            "name" : "TempleWallRoofs.001"
        }
    ],
    "materials" : [
        {
            "doubleSided" : true,
            "name" : "PaletteMaterial",
            "pbrMetallicRoughness" : {}
        }
    ],
    "meshes" : [
        {
            "name" : "Cube.109",
            "primitives" : [
                {
                    "attributes" : {
                        "POSITION" : 0,
                        "NORMAL" : 1,
                        "TEXCOORD_0" : 2
                    },
                    "indices" : 3,
                    "material" : 0
                }
            ]
        }
    ],
    "accessors" : [
        {
            "bufferView" : 0,
            "componentType" : 5126,
            "count" : 3283,
            "max" : [
                8.020869255065918,
                7.350282669067383,
                8.020858764648438
            ],
            "min" : [
                -8.020869255065918,
                -0.0013446807861328125,
                -8.020858764648438
            ],
            "type" : "VEC3"
        },
        {
            "bufferView" : 1,
            "componentType" : 5126,
            "count" : 3283,
            "type" : "VEC3"
        },
        {
            "bufferView" : 2,
            "componentType" : 5126,
            "count" : 3283,
            "type" : "VEC2"
        },
        {
            "bufferView" : 3,
            "componentType" : 5123,
            "count" : 6552,
            "type" : "SCALAR"
        }
    ],
    "bufferViews" : [
        {
            "buffer" : 0,
            "byteLength" : 39396,
            "byteOffset" : 0
        },
        {
            "buffer" : 0,
            "byteLength" : 39396,
            "byteOffset" : 39396
        },
        {
            "buffer" : 0,
            "byteLength" : 26264,
            "byteOffset" : 78792
        },
        {
            "buffer" : 0,
            "byteLength" : 13104,
            "byteOffset" : 105056
        }
    ],
    "buffers" : [
        {
            "byteLength" : 118160,
            "uri" : "data:application/octet-stream;base64,"
        }
    ]
}
