{
    "asset" : {
        "generator" : "Khronos glTF Blender I/O v1.6.16",
        "version" : "2.0"
    },
    "scene" : 0,
    "scenes" : [
        {
            "name" : "Scene",
            "nodes" : [
                0
            ]
        }
    ],
    "nodes" : [
        {
            "mesh" : 0,
            "name" : "TempleWall"
        }
    ],
    "materials" : [
        {
            "doubleSided" : true,
            "name" : "PaletteMaterial",
            "pbrMetallicRoughness" : {}
        }
    ],
    "meshes" : [
        {
            "name" : "Cube.027",
            "primitives" : [
                {
                    "attributes" : {
                        "POSITION" : 0,
                        "NORMAL" : 1,
                        "TEXCOORD_0" : 2
                    },
                    "indices" : 3,
                    "material" : 0
                }
            ]
        }
    ],
    "accessors" : [
        {
            "bufferView" : 0,
            "componentType" : 5126,
            "count" : 68,
            "max" : [
                1.0000009536743164,
                3.1999998092651367,
                0.2989993095397949
            ],
            "min" : [
                -0.9999990463256836,
                2.3841856489070778e-07,
                -0.29900121688842773
            ],
            "type" : "VEC3"
        },
        {
            "bufferView" : 1,
            "componentType" : 5126,
            "count" : 68,
            "type" : "VEC3"
        },
        {
            "bufferView" : 2,
            "componentType" : 5126,
            "count" : 68,
            "type" : "VEC2"
        },
        {
            "bufferView" : 3,
            "componentType" : 5123,
            "count" : 108,
            "type" : "SCALAR"
        }
    ],
    "bufferViews" : [
        {
            "buffer" : 0,
            "byteLength" : 816,
            "byteOffset" : 0
        },
        {
            "buffer" : 0,
            "byteLength" : 816,
            "byteOffset" : 816
        },
        {
            "buffer" : 0,
            "byteLength" : 544,
            "byteOffset" : 1632
        },
        {
            "buffer" : 0,
            "byteLength" : 216,
            "byteOffset" : 2176
        }
    ],
    "buffers" : [
        {
            "byteLength" : 2392,
            "uri" : "data:application/octet-stream;base64,"
        }
    ]
}
