{
    "asset" : {
        "generator" : "Khronos glTF Blender I/O v1.6.16",
        "version" : "2.0"
    },
    "scene" : 0,
    "scenes" : [
        {
            "name" : "Scene",
            "nodes" : [
                0
            ]
        }
    ],
    "nodes" : [
        {
            "mesh" : 0,
            "name" : "TempleBase"
        }
    ],
    "materials" : [
        {
            "doubleSided" : true,
            "name" : "PaletteMaterial",
            "pbrMetallicRoughness" : {}
        }
    ],
    "meshes" : [
        {
            "name" : "Cube.021",
            "primitives" : [
                {
                    "attributes" : {
                        "POSITION" : 0,
                        "NORMAL" : 1,
                        "TEXCOORD_0" : 2
                    },
                    "indices" : 3,
                    "material" : 0
                }
            ]
        }
    ],
    "accessors" : [
        {
            "bufferView" : 0,
            "componentType" : 5126,
            "count" : 1639,
            "max" : [
                30.20000457763672,
                4,
                30.200000762939453
            ],
            "min" : [
                -30.20000457763672,
                0,
                -30.20000457763672
            ],
            "type" : "VEC3"
        },
        {
            "bufferView" : 1,
            "componentType" : 5126,
            "count" : 1639,
            "type" : "VEC3"
        },
        {
            "bufferView" : 2,
            "componentType" : 5126,
            "count" : 1639,
            "type" : "VEC2"
        },
        {
            "bufferView" : 3,
            "componentType" : 5123,
            "count" : 3468,
            "type" : "SCALAR"
        }
    ],
    "bufferViews" : [
        {
            "buffer" : 0,
            "byteLength" : 19668,
            "byteOffset" : 0
        },
        {
            "buffer" : 0,
            "byteLength" : 19668,
            "byteOffset" : 19668
        },
        {
            "buffer" : 0,
            "byteLength" : 13112,
            "byteOffset" : 39336
        },
        {
            "buffer" : 0,
            "byteLength" : 6936,
            "byteOffset" : 52448
        }
    ],
    "buffers" : [
        {
            "byteLength" : 59384,
            "uri" : "data:application/octet-stream;base64,"
        }
    ]
}
