{
    "asset" : {
        "generator" : "Khronos glTF Blender I/O v1.6.16",
        "version" : "2.0"
    },
    "scene" : 0,
    "scenes" : [
        {
            "name" : "Scene",
            "nodes" : [
                0
            ]
        }
    ],
    "nodes" : [
        {
            "mesh" : 0,
            "name" : "TempleWall-Tn"
        }
    ],
    "materials" : [
        {
            "doubleSided" : true,
            "name" : "PaletteMaterial",
            "pbrMetallicRoughness" : {}
        }
    ],
    "meshes" : [
        {
            "name" : "Cube.041",
            "primitives" : [
                {
                    "attributes" : {
                        "POSITION" : 0,
                        "NORMAL" : 1,
                        "TEXCOORD_0" : 2
                    },
                    "indices" : 3,
                    "material" : 0
                }
            ]
        }
    ],
    "accessors" : [
        {
            "bufferView" : 0,
            "componentType" : 5126,
            "count" : 161,
            "max" : [
                1.0000009536743164,
                3.1999998092651367,
                0.2990012764930725
            ],
            "min" : [
                -1.0000009536743164,
                2.3841856489070778e-07,
                -1.0000009536743164
            ],
            "type" : "VEC3"
        },
        {
            "bufferView" : 1,
            "componentType" : 5126,
            "count" : 161,
            "type" : "VEC3"
        },
        {
            "bufferView" : 2,
            "componentType" : 5126,
            "count" : 161,
            "type" : "VEC2"
        },
        {
            "bufferView" : 3,
            "componentType" : 5123,
            "count" : 288,
            "type" : "SCALAR"
        }
    ],
    "bufferViews" : [
        {
            "buffer" : 0,
            "byteLength" : 1932,
            "byteOffset" : 0
        },
        {
            "buffer" : 0,
            "byteLength" : 1932,
            "byteOffset" : 1932
        },
        {
            "buffer" : 0,
            "byteLength" : 1288,
            "byteOffset" : 3864
        },
        {
            "buffer" : 0,
            "byteLength" : 576,
            "byteOffset" : 5152
        }
    ],
    "buffers" : [
        {
            "byteLength" : 5728,
            "uri" : "data:application/octet-stream;base64,"
        }
    ]
}
