{
    "asset" : {
        "generator" : "Khronos glTF Blender I/O v1.6.16",
        "version" : "2.0"
    },
    "scene" : 0,
    "scenes" : [
        {
            "name" : "Scene",
            "nodes" : [
                0
            ]
        }
    ],
    "nodes" : [
        {
            "mesh" : 0,
            "name" : "Wall-Gate"
        }
    ],
    "materials" : [
        {
            "doubleSided" : true,
            "name" : "PaletteMaterial",
            "pbrMetallicRoughness" : {}
        }
    ],
    "meshes" : [
        {
            "name" : "Cube.020",
            "primitives" : [
                {
                    "attributes" : {
                        "POSITION" : 0,
                        "NORMAL" : 1,
                        "TEXCOORD_0" : 2
                    },
                    "indices" : 3,
                    "material" : 0
                }
            ]
        }
    ],
    "accessors" : [
        {
            "bufferView" : 0,
            "componentType" : 5126,
            "count" : 749,
            "max" : [
                3.0000009536743164,
                2.999999761581421,
                0.2678462266921997
            ],
            "min" : [
                -3.0000009536743164,
                2.3841856489070778e-07,
                -0.2678462266921997
            ],
            "type" : "VEC3"
        },
        {
            "bufferView" : 1,
            "componentType" : 5126,
            "count" : 749,
            "type" : "VEC3"
        },
        {
            "bufferView" : 2,
            "componentType" : 5126,
            "count" : 749,
            "type" : "VEC2"
        },
        {
            "bufferView" : 3,
            "componentType" : 5123,
            "count" : 1464,
            "type" : "SCALAR"
        }
    ],
    "bufferViews" : [
        {
            "buffer" : 0,
            "byteLength" : 8988,
            "byteOffset" : 0
        },
        {
            "buffer" : 0,
            "byteLength" : 8988,
            "byteOffset" : 8988
        },
        {
            "buffer" : 0,
            "byteLength" : 5992,
            "byteOffset" : 17976
        },
        {
            "buffer" : 0,
            "byteLength" : 2928,
            "byteOffset" : 23968
        }
    ],
    "buffers" : [
        {
            "byteLength" : 26896,
            "uri" : "data:application/octet-stream;base64,"
        }
    ]
}
