{
    "asset" : {
        "generator" : "Khronos glTF Blender I/O v1.6.16",
        "version" : "2.0"
    },
    "scene" : 0,
    "scenes" : [
        {
            "name" : "Scene",
            "nodes" : [
                0
            ]
        }
    ],
    "nodes" : [
        {
            "mesh" : 0,
            "name" : "Wall-Gate-Circle-Rotated"
        }
    ],
    "materials" : [
        {
            "doubleSided" : true,
            "name" : "PaletteMaterial",
            "pbrMetallicRoughness" : {}
        }
    ],
    "meshes" : [
        {
            "name" : "Cube.045",
            "primitives" : [
                {
                    "attributes" : {
                        "POSITION" : 0,
                        "NORMAL" : 1,
                        "TEXCOORD_0" : 2
                    },
                    "indices" : 3,
                    "material" : 0
                }
            ]
        }
    ],
    "accessors" : [
        {
            "bufferView" : 0,
            "componentType" : 5126,
            "count" : 549,
            "max" : [
                0.1300000250339508,
                2.999999761581421,
                2.9999990463256836
            ],
            "min" : [
                -0.1300000250339508,
                2.384185791015625e-07,
                -3.0000009536743164
            ],
            "type" : "VEC3"
        },
        {
            "bufferView" : 1,
            "componentType" : 5126,
            "count" : 549,
            "type" : "VEC3"
        },
        {
            "bufferView" : 2,
            "componentType" : 5126,
            "count" : 549,
            "type" : "VEC2"
        },
        {
            "bufferView" : 3,
            "componentType" : 5123,
            "count" : 918,
            "type" : "SCALAR"
        }
    ],
    "bufferViews" : [
        {
            "buffer" : 0,
            "byteLength" : 6588,
            "byteOffset" : 0
        },
        {
            "buffer" : 0,
            "byteLength" : 6588,
            "byteOffset" : 6588
        },
        {
            "buffer" : 0,
            "byteLength" : 4392,
            "byteOffset" : 13176
        },
        {
            "buffer" : 0,
            "byteLength" : 1836,
            "byteOffset" : 17568
        }
    ],
    "buffers" : [
        {
            "byteLength" : 19404,
            "uri" : "data:application/octet-stream;base64,"
        }
    ]
}
